<?xml version="1.0" encoding="utf-8"?>
<!-- Generator: Adobe Illustrator 22.0.1, SVG Export Plug-In . SVG Version: 6.00 Build 0)  -->
<svg version="1.1" id="Ebene_1" xmlns="http://www.w3.org/2000/svg" xmlns:xlink="http://www.w3.org/1999/xlink" x="0px" y="0px"
	 viewBox="0 0 272 35.2" style="enable-background:new 0 0 272 35.2;" xml:space="preserve">
<style type="text/css">
	.st0{fill-rule:evenodd;clip-rule:evenodd;fill:#706F6F;}
	.st1{fill-rule:evenodd;clip-rule:evenodd;fill:#5BA494;}
	.st2{fill-rule:evenodd;clip-rule:evenodd;fill:#748FC9;}
	.st3{fill-rule:evenodd;clip-rule:evenodd;fill:#EC3940;}
	.st4{fill:#153256;}
</style>
<g>
	<path class="st0" d="M17.6,0c9.7,0,17.6,7.9,17.6,17.6c0,9.7-7.9,17.6-17.6,17.6C7.9,35.2,0,27.3,0,17.6C0,7.9,7.9,0,17.6,0L17.6,0
		z"/>
	<path class="st1" d="M58.1,0c9.7,0,17.6,7.9,17.6,17.6c0,9.7-7.9,17.6-17.6,17.6c-9.7,0-17.6-7.9-17.6-17.6C40.6,7.9,48.5,0,58.1,0
		L58.1,0z"/>
	<path class="st2" d="M98.7,0c9.7,0,17.6,7.9,17.6,17.6c0,9.7-7.9,17.6-17.6,17.6c-9.7,0-17.6-7.9-17.6-17.6C81.1,7.9,89,0,98.7,0
		L98.7,0z"/>
	<path class="st3" d="M139.3,0c9.7,0,17.6,7.9,17.6,17.6c0,9.7-7.9,17.6-17.6,17.6c-9.7,0-17.6-7.9-17.6-17.6
		C121.7,7.9,129.6,0,139.3,0L139.3,0z"/>
	<polygon class="st4" points="170.6,18.2 170.6,0 172.6,0 172.6,18.2 170.6,18.2 	"/>
	<path class="st4" d="M185.5,0h3.1l9.9,18.2l-2.3,0l-2.4-4.4h-13.6l-2.4,4.4h-2.2L185.5,0L185.5,0z M187,1.3L181.2,12h11.5L187,1.3
		L187,1.3z"/>
	<polygon class="st4" points="200.2,0 204.6,0 219.3,16.4 219.3,0 221.3,0 221.3,18.2 218.4,18.2 203.2,1.4 202.1,1.4 202.1,18.2 
		200.2,18.2 200.2,0 	"/>
	<path class="st4" d="M234.1,16.3h2.9c3.5,0,5.6-0.3,6.5-1c0.8-0.7,1.2-2.5,1.2-5.4V0h2v9.9c0,3.5-0.6,5.7-1.8,6.8
		c-1.2,1.1-3.8,1.6-7.8,1.6h-3c-4,0-6.7-0.5-7.9-1.6c-1.2-1.1-1.8-3.3-1.8-6.8V0h2v9.9c0,2.9,0.4,4.7,1.3,5.4
		C228.4,16,230.6,16.3,234.1,16.3L234.1,16.3z"/>
	<path class="st4" d="M255.3,0h10c4.3,0,6.5,1.7,6.5,5.2h-2c0-1.1-0.4-1.9-1.1-2.4c-0.8-0.6-2.1-0.9-3.9-0.9h-9.7
		c-1.5,0-2.5,0.3-3,0.8c-0.5,0.5-0.7,1.2-0.7,2.3c0,1.2,0.4,1.9,1.1,2.3c0.7,0.4,2.3,0.6,4.7,0.6l5.9,0.1c3.5,0,5.8,0.4,7.1,1.1
		c1.3,0.8,1.9,2.1,1.9,4c0,1.9-0.5,3.2-1.5,4c-1,0.8-2.6,1.2-4.8,1.2h-9.9c-2,0-3.5-0.4-4.6-1.3c-1.1-0.9-1.6-2.2-1.6-3.9h2
		c0,1.1,0.3,1.9,1,2.4c0.8,0.6,2.1,0.9,3.9,0.9h9.1c1.6,0,2.7-0.2,3.4-0.7c0.7-0.5,1-1.3,1-2.6c0-1.2-0.4-2-1.2-2.4
		c-0.9-0.5-2.6-0.7-5.2-0.7l-6.7-0.2c-3,0-5-0.4-6.1-1.2c-0.9-0.7-1.4-1.9-1.4-3.7c0-1.7,0.5-2.9,1.4-3.7C251.8,0.4,253.3,0,255.3,0
		L255.3,0z"/>
	<path class="st4" d="M173.6,24.4h5.9c2.5,0,3.8,1,3.8,3h-1.2c0-0.6-0.2-1.1-0.6-1.4c-0.5-0.3-1.2-0.5-2.3-0.5h-5.7
		c-0.9,0-1.5,0.1-1.8,0.4c-0.3,0.3-0.4,0.7-0.4,1.3c0,0.7,0.2,1.1,0.6,1.4c0.4,0.2,1.3,0.3,2.7,0.3l3.5,0.1c2,0,3.4,0.2,4.1,0.7
		c0.7,0.4,1.1,1.2,1.1,2.3c0,1.1-0.3,1.9-0.9,2.3c-0.6,0.5-1.5,0.7-2.8,0.7H174c-1.2,0-2.1-0.3-2.7-0.8c-0.6-0.5-1-1.3-1-2.3h1.2
		c0,0.6,0.2,1.1,0.6,1.4c0.5,0.3,1.2,0.5,2.3,0.5h5.3c0.9,0,1.6-0.1,2-0.4c0.4-0.3,0.6-0.8,0.6-1.5c0-0.7-0.2-1.2-0.7-1.4
		c-0.5-0.3-1.5-0.4-3.1-0.4l-3.9-0.1c-1.7,0-2.9-0.2-3.6-0.7c-0.5-0.4-0.8-1.1-0.8-2.1c0-1,0.3-1.7,0.8-2.2
		C171.6,24.7,172.5,24.4,173.6,24.4L173.6,24.4z"/>
	<path class="st4" d="M186.5,27.5v7.6h-1.2v-7.6H186.5L186.5,27.5z M186.5,24.4v1.1h-1.2v-1.1H186.5L186.5,24.4z"/>
	<path class="st4" d="M203.9,27.5c1.1,0,1.9,0.3,2.6,0.8c0.6,0.5,0.9,1.1,0.9,1.9v4.9h-1.2v-4.6c0-0.7-0.2-1.2-0.7-1.5
		c-0.5-0.3-1.1-0.5-2-0.5h-2.3c-0.9,0-1.6,0.2-2,0.5c-0.5,0.3-0.7,0.9-0.7,1.6v4.6h-1.2v-4.6c0-0.7-0.2-1.2-0.7-1.5
		c-0.5-0.3-1.1-0.5-1.9-0.5h-2.4c-0.9,0-1.6,0.2-2.1,0.7c-0.4,0.4-0.6,0.8-0.6,1.4v4.6h-1.2v-7.6h1.2v1.2c0.2-0.4,0.4-0.6,0.8-0.8
		c0.4-0.2,1-0.3,1.7-0.3h2.7c1,0,1.7,0.2,2.2,0.5c0.4,0.2,0.7,0.6,0.9,1c0.2-0.5,0.5-0.8,0.8-1c0.5-0.3,1.2-0.5,2.1-0.5H203.9
		L203.9,27.5z"/>
	<path class="st4" d="M212.4,35.1c-1.2,0-2.1-0.3-2.6-0.8c-0.6-0.5-0.8-1.2-0.8-2.2v-4.6h1.2v4.7c0,0.6,0.2,1.1,0.6,1.5
		c0.4,0.3,1,0.5,1.7,0.5h3.1c0.7,0,1.2-0.2,1.6-0.5c0.5-0.3,0.7-0.8,0.7-1.4v-4.7h1.1v7.6h-1.1v-0.9c-0.2,0.2-0.5,0.4-0.7,0.6
		c-0.4,0.2-1,0.3-1.6,0.3H212.4L212.4,35.1z"/>
	<polygon class="st4" points="222.3,24.4 222.3,35.1 221.2,35.1 221.2,24.4 222.3,24.4 	"/>
	<path class="st4" d="M226.6,30.5h4.9c0.4,0,0.8,0.1,1,0.2c0.2,0.1,0.4,0.3,0.5,0.5V30c0-0.5-0.1-0.8-0.4-1.1
		c-0.3-0.3-0.8-0.5-1.5-0.5h-3.4c-0.7,0-1.1,0.1-1.5,0.3c-0.3,0.2-0.5,0.5-0.5,0.8v0.2h-1.2v-0.2c0-0.6,0.3-1.1,0.8-1.5
		c0.5-0.4,1.2-0.5,2.1-0.5h3.8c1,0,1.8,0.2,2.3,0.7c0.5,0.4,0.7,1.1,0.7,1.9v4.9h-1.2v-0.6c-0.2,0.2-0.4,0.3-0.6,0.4
		c-0.2,0.1-0.5,0.2-0.9,0.2h-5.1c-1.6,0-2.4-0.6-2.4-1.9v-0.9c0-0.5,0.2-1,0.6-1.3C225.1,30.6,225.8,30.5,226.6,30.5L226.6,30.5z
		 M231.3,31.4H227c-0.7,0-1.1,0.1-1.4,0.3c-0.2,0.2-0.4,0.5-0.4,0.8v0.6c0,0.4,0.1,0.6,0.4,0.8c0.3,0.2,0.7,0.3,1.4,0.3h4.3
		c0.6,0,1.1-0.1,1.3-0.3c0.3-0.2,0.4-0.6,0.4-1.1C233,31.9,232.4,31.4,231.3,31.4L231.3,31.4z"/>
	<path class="st4" d="M239.2,34.2h2.2c0.6,0,1.1-0.1,1.4-0.4c0.2-0.2,0.3-0.4,0.3-0.7h1.3c0,0.5-0.2,1-0.6,1.3
		c-0.5,0.5-1.2,0.7-2.2,0.7h-2.3c-0.9,0-1.6-0.2-2.1-0.7c-0.5-0.5-0.8-1.2-0.8-2.1v-3.7h-1v-1.1h1v-1.5h1.2v1.5h6v1.1h-6v3.8
		c0,0.6,0.2,1,0.5,1.3C238.2,34,238.7,34.2,239.2,34.2L239.2,34.2z"/>
	<path class="st4" d="M246.9,27.5v7.6h-1.2v-7.6H246.9L246.9,27.5z M246.9,24.4v1.1h-1.2v-1.1H246.9L246.9,24.4z"/>
	<path class="st4" d="M252.2,27.5h3.2c1.2,0,2.1,0.3,2.7,0.9c0.5,0.5,0.8,1.2,0.8,2.1v1.7c0,0.9-0.3,1.6-0.8,2.1
		c-0.6,0.6-1.5,0.9-2.7,0.9h-3.2c-2.3,0-3.5-1-3.5-3v-1.7c0-0.9,0.3-1.6,0.8-2.1C250.1,27.8,251,27.5,252.2,27.5L252.2,27.5z
		 M249.9,32.1c0,1.4,0.8,2,2.4,2h3c0.8,0,1.4-0.2,1.8-0.5c0.4-0.3,0.7-0.9,0.7-1.6v-1.7c0-0.7-0.2-1.2-0.6-1.5
		c-0.4-0.3-1-0.5-1.8-0.5h-3c-0.8,0-1.4,0.2-1.8,0.5c-0.4,0.3-0.6,0.8-0.6,1.6V32.1L249.9,32.1z"/>
	<path class="st4" d="M267,27.5c1.2,0,2.1,0.3,2.7,1c0.5,0.5,0.8,1.3,0.8,2.2v4.4h-1.2v-4.6c0-0.7-0.2-1.2-0.6-1.5
		c-0.4-0.4-1-0.5-1.7-0.5h-3.1c-0.7,0-1.3,0.2-1.7,0.6s-0.7,0.9-0.7,1.5v4.6h-1.2v-7.6h1.2v1.2c0.2-0.4,0.5-0.7,0.9-0.9
		c0.4-0.2,0.9-0.3,1.5-0.3H267L267,27.5z"/>
</g>
</svg>
