<?xml version="1.0" encoding="UTF-8"?>
<svg id="Ebene_1" data-name="Ebene 1" xmlns="http://www.w3.org/2000/svg" viewBox="0 0 1891.6 1703.32">
  <defs>
    <style>
      .cls-1 {
        fill: #212529;
      }

      .cls-2 {
        fill: #6f89c4;
      }

      .cls-3 {
        fill: #748fc9;
      }

      .cls-4 {
        fill: #1d1d1b;
      }
    </style>
  </defs>
  <g>
    <path class="cls-2" d="m1254.73,104.53c29.13-1.25,58.07-4.35,86.72-9.05-20.76-14.09-42.55-26.75-65.12-38.1-112.61,8.84-226.14-10.1-329.05-57.38-24.86,2.95-49.27,7.37-73.07,13.37l1.02.54c113.95,65.05,245.17,96.38,379.49,90.62Z"/>
    <path class="cls-2" d="m919.4,206.44c113.95,65.05,245.17,96.39,379.5,90.63,69.3-2.97,137.63-15.85,203.15-37.99-8.74-13.39-18.03-26.38-27.82-38.97-177.54,55.68-371.75,38.89-532.75-53.15l-3.06-1.62c-72.08-40.23-151.1-66.74-233.39-78.85-19.32,12.32-37.92,25.65-55.59,40.1,93.5,6.51,184.89,32.41,267.2,78.4l2.76,1.45Z"/>
    <path class="cls-2" d="m960.8,397.52l2.76,1.46c113.95,65.05,245.17,96.39,379.49,90.62,81.29-3.49,161.2-20.68,236.84-50.39-3.59-14.89-7.76-29.56-12.48-43.98-190.19,75.57-405.82,64.85-581.79-35.74l-3.07-1.62c-113.2-63.18-243.48-92.69-376.76-85.35-30.32,1.67-60.45,5.35-90.29,10.77-9.93,16.97-19,34.48-27.2,52.49.99-.23,1.97-.52,2.95-.75,159.82-36.65,328.05-16.55,469.51,62.5Z"/>
    <path class="cls-2" d="m1029.8,552.03l-3.05-1.61c-113.21-63.19-243.48-92.7-376.77-85.36-71.46,3.93-141.99,18.54-209.57,42.89-1.92,16.49-3.12,33.18-3.62,50.06,32.32-12.58,65.29-22.79,98.66-30.45,159.82-36.65,328.05-16.55,469.51,62.5l2.77,1.46c113.95,65.05,245.17,96.38,379.49,90.62,69.93-3,138.86-16.11,204.92-38.61,1.91-16.34,3.1-32.89,3.62-49.62-186.24,68.82-394.86,55.94-565.95-41.87Z"/>
    <path class="cls-2" d="m1073.97,744.56l-3.06-1.62c-71.82-40.09-150.54-66.57-232.51-78.73.35.63.76,1.23,1.14,1.85-57.48-49.95-132.48-80.26-214.61-80.26-180.83,0-327.41,146.59-327.41,327.41s146.59,327.41,327.41,327.41c114.81,0,215.75-59.14,274.2-148.57,70.1,7.96,138.6,26.89,202.5,57.28,23.71-3.5,46.92-8.52,69.6-14.8-2.98-1.64-5.98-3.23-8.93-4.92l-3.06-1.62c-72.93-40.7-153.01-67.2-236.36-79.1,18.24-39.98,28.67-84.24,29.34-130.89,48.94,13.25,96.37,32.13,141.07,57.1l2.77,1.46c73.94,42.21,155.18,70.13,239.79,83.02,18.45-12.21,36.15-25.43,53.04-39.61-94.55-7.62-187.14-35.1-270.76-82.9l-3.06-1.62c-52.04-29.04-107.74-50.81-165.64-65.31-7.28-55.39-28.36-106.41-59.75-149.49,55.46,13.3,109.16,33.81,159.44,61.91l2.77,1.46c113.95,65.05,245.17,96.38,379.49,90.62,29.27-1.26,58.34-4.38,87.13-9.12,9.64-16.67,18.46-33.85,26.44-51.51-159.96,34.49-328.48,11.99-470.98-69.48Zm-449.04,474.67c-169,0-306.01-137.01-306.01-306.01s137.01-306.01,306.01-306.01,306.01,137.01,306.01,306.01-137.01,306.01-306.01,306.01Z"/>
  </g>
  <g>
    <path class="cls-1" d="m82.23,1461.1c0-8.27-2.24-14.6-6.71-19-4.48-4.4-12.56-8.69-24.24-12.86-11.68-4.17-20.61-8.55-26.8-13.14-6.18-4.59-10.81-9.82-13.88-15.7-3.07-5.88-4.61-12.61-4.61-20.2,0-13.12,4.38-23.93,13.14-32.43,8.76-8.49,20.24-12.74,34.42-12.74,9.71,0,18.36,2.17,25.94,6.5,7.58,4.33,13.43,10.36,17.52,18.09,4.1,7.73,6.14,16.22,6.14,25.47h-20.94c0-10.24-2.47-18.17-7.4-23.78-4.93-5.61-12.02-8.42-21.28-8.42-8.42,0-14.95,2.36-19.57,7.07-4.63,4.71-6.94,11.32-6.94,19.83,0,6.99,2.5,12.84,7.51,17.56,5.01,4.71,12.74,8.93,23.21,12.65,16.31,5.4,27.97,12.04,34.99,19.93,7.02,7.89,10.52,18.21,10.52,30.95,0,13.43-4.36,24.18-13.09,32.26-8.72,8.08-20.6,12.12-35.62,12.12-9.63,0-18.53-2.1-26.68-6.32-8.16-4.21-14.56-10.13-19.23-17.75-4.66-7.62-7-16.37-7-26.23h20.94c0,10.24,2.86,18.21,8.59,23.9,5.73,5.69,13.52,8.54,23.38,8.54,9.18,0,16.08-2.35,20.71-7.05,4.63-4.7,6.94-11.11,6.94-19.23Z"/>
    <path class="cls-1" d="m227.42,1355.16h-43.58v147.81h-20.82v-147.81h-43.47v-17.87h107.87v17.87Z"/>
    <path class="cls-1" d="m301.95,1435.95h-29.13v67.02h-20.94v-165.68h46.43c16.23,0,28.52,4.23,36.87,12.69,8.34,8.46,12.52,20.84,12.52,37.15,0,10.24-2.26,19.17-6.77,26.8-4.52,7.62-10.91,13.37-19.17,17.24l32.09,70.43v1.37h-22.42l-29.47-67.02Zm-29.13-17.87h25.26c8.72,0,15.68-2.81,20.88-8.43,5.2-5.62,7.79-13.15,7.79-22.57,0-21.28-9.63-31.92-28.9-31.92h-25.03v62.92Z"/>
    <path class="cls-1" d="m483.33,1434.7c0,22.61-4.82,40.02-14.45,52.23-9.63,12.21-23.33,18.32-41.08,18.32s-30.55-5.94-40.45-17.81c-9.9-11.87-15.04-28.65-15.42-50.35v-31.18c0-22.15,4.89-39.5,14.68-52.06,9.79-12.55,23.44-18.83,40.96-18.83s31.05,6.01,40.79,18.03c9.75,12.03,14.74,29.19,14.96,51.49v30.15Zm-20.82-29.02c0-17.52-2.86-30.55-8.59-39.09-5.73-8.54-14.51-12.8-26.34-12.8s-20.12,4.32-26,12.97c-5.88,8.65-8.86,21.39-8.93,38.23v29.7c0,16.92,2.94,29.81,8.82,38.69,5.88,8.88,14.66,13.31,26.34,13.31s20.33-4.1,25.94-12.29c5.61-8.19,8.54-20.75,8.76-37.66v-31.06Z"/>
    <path class="cls-3" d="m594.27,1431.29h-50.52l-7.62,43.92h59.85l-4.89,27.76h-92.4l28.67-165.68h92.28l-4.89,27.88h-59.51l-6.83,39.14h50.64l-4.78,26.97Z"/>
    <path class="cls-1" d="m664.16,1337.3l43.24,135.18,43.24-135.18h26.85v165.68h-20.82v-64.52l1.93-64.63-43.35,129.15h-15.93l-43.13-128.69,1.94,64.18v64.52h-20.82v-165.68h26.85Z"/>
    <path class="cls-1" d="m912.11,1337.3v117.77c-.15,15.7-4.7,27.99-13.65,36.87-8.95,8.88-21.43,13.31-37.44,13.31s-28.9-4.34-37.55-13.03c-8.65-8.69-13.05-21.07-13.2-37.15v-117.77h20.71v116.88c0,11.15,2.37,19.46,7.11,24.96,4.74,5.5,12.38,8.24,22.93,8.24s18.3-2.75,23.04-8.24c4.74-5.49,7.11-13.81,7.11-24.96v-116.88h20.94Z"/>
    <path class="cls-1" d="m1052.41,1502.97h-20.94l-66.34-127.67v127.67h-20.94v-165.68h20.94l66.57,128.24v-128.24h20.71v165.68Z"/>
    <path class="cls-1" d="m1192.14,1482.38l-3.64,4.55c-10.47,12.21-25.79,18.32-45.97,18.32-17.9,0-31.96-5.94-42.16-17.81-10.2-11.87-15.42-28.65-15.65-50.35v-32.54c0-23.21,4.65-40.6,13.94-52.17,9.29-11.57,23.19-17.35,41.7-17.35,15.78,0,28.12,4.38,37.04,13.14,8.91,8.76,13.83,21.3,14.74,37.61h-20.82c-.84-10.32-3.7-18.38-8.59-24.18-4.89-5.8-12.31-8.7-22.25-8.7-11.91,0-20.63,3.89-26.17,11.66-5.54,7.78-8.42,20.2-8.65,37.27v33.79c0,16.69,3.19,29.49,9.56,38.4s15.51,13.37,27.42,13.37c11.23,0,19.76-2.72,25.6-8.16l3.07-2.83v-38.06h-30.27v-17.86h51.09v61.9Z"/>
    <path class="cls-1" d="m1298.53,1461.1c0-8.27-2.24-14.6-6.71-19-4.48-4.4-12.55-8.69-24.24-12.86-11.68-4.17-20.61-8.55-26.8-13.14-6.18-4.59-10.81-9.82-13.88-15.7-3.07-5.88-4.61-12.61-4.61-20.2,0-13.12,4.38-23.93,13.14-32.43,8.76-8.49,20.24-12.74,34.42-12.74,9.71,0,18.36,2.17,25.94,6.5,7.58,4.33,13.43,10.36,17.52,18.09,4.1,7.73,6.14,16.22,6.14,25.47h-20.94c0-10.24-2.47-18.17-7.4-23.78-4.93-5.61-12.02-8.42-21.28-8.42-8.42,0-14.95,2.36-19.57,7.07-4.63,4.71-6.94,11.32-6.94,19.83,0,6.99,2.5,12.84,7.51,17.56,5.01,4.71,12.74,8.93,23.21,12.65,16.31,5.4,27.97,12.04,34.99,19.93,7.02,7.89,10.52,18.21,10.52,30.95,0,13.43-4.36,24.18-13.08,32.26-8.72,8.08-20.6,12.12-35.62,12.12-9.63,0-18.53-2.1-26.68-6.32-8.15-4.21-14.56-10.13-19.23-17.75-4.66-7.62-7-16.37-7-26.23h20.94c0,10.24,2.86,18.21,8.59,23.9,5.73,5.69,13.52,8.54,23.38,8.54,9.18,0,16.08-2.35,20.71-7.05,4.63-4.7,6.94-11.11,6.94-19.23Z"/>
    <path class="cls-1" d="m1392.52,1442.44h-16.61v60.54h-33.45v-165.68h53.37c16.76,0,29.72,4.34,38.86,13.03,9.14,8.69,13.71,21.03,13.71,37.04,0,22-8,37.4-24.01,46.2l29.02,67.82v1.59h-35.96l-24.92-60.54Zm-16.61-27.88h19c6.67,0,11.68-2.22,15.02-6.66,3.34-4.44,5.01-10.37,5.01-17.81,0-16.61-6.49-24.92-19.46-24.92h-19.57v49.38Z"/>
    <path class="cls-1" d="m1550.46,1469.07h-45.63l-8.88,33.91h-35.39l51.77-165.68h30.61l52.11,165.68h-35.73l-8.88-33.91Zm-38.35-27.88h30.95l-15.48-59.06-15.48,59.06Z"/>
    <path class="cls-1" d="m1716.36,1337.3v114.7c-.15,17.22-4.89,30.4-14.22,39.54-9.33,9.14-22.72,13.71-40.17,13.71s-31.31-4.63-40.68-13.88c-9.37-9.25-14.05-22.64-14.05-40.17v-113.9h33.68v114.02c0,9.41,1.52,16.12,4.55,20.14,3.03,4.02,8.54,6.03,16.5,6.03s13.43-1.99,16.39-5.97c2.96-3.98,4.48-10.52,4.55-19.63v-114.59h33.45Z"/>
    <path class="cls-1" d="m1785.43,1337.3l31.29,119.82,31.18-119.82h43.69v165.68h-33.57v-44.83l3.07-69.07-33.11,113.9h-22.76l-33.11-113.9,3.07,69.07v44.83h-33.45v-165.68h43.69Z"/>
  </g>
  <path class="cls-4" d="m766.02,806.04c27.96-13.31,39.84-46.77,26.52-74.73-13.31-27.96-46.77-39.84-74.73-26.52-20.22,9.63-32.02,29.79-31.97,50.79l-145.12,17.33c-.35-.93-.73-1.86-1.17-2.77-8.37-17.58-29.4-25.04-46.97-16.67-17.58,8.37-25.04,29.4-16.67,46.97,8.37,17.57,29.4,25.04,46.97,16.67,2.31-1.1,4.45-2.43,6.4-3.93l42.34,32.49c-1.14,3.62-1.53,7.47-1.08,11.32l-157.74,76.77c-8.82-9.4-23.02-12.49-35.29-6.65-15.18,7.23-21.62,25.39-14.4,40.57,7.23,15.18,25.39,21.63,40.57,14.4,12.43-5.92,19-19.17,17-32.11l157.74-76.77c1.14,1.13,2.38,2.13,3.68,3.03l-36.54,145.25c-.82-.04-1.65-.06-2.48-.06-26.53,0-48.03,21.5-48.03,48.03s21.5,48.03,48.03,48.03c21.78,0,40.17-14.51,46.05-34.38l118.09,8.27c2.25,14.78,15.02,26.11,30.43,26.11,17,0,30.79-13.78,30.79-30.79s-13.78-30.79-30.79-30.79c-2.61,0-5.14.33-7.56.94l-112.97-184.02c1.41-1.45,2.63-3.05,3.67-4.75l74.29,26.98c-.07.79-.12,1.59-.12,2.4,0,15.64,12.68,28.32,28.32,28.32s28.32-12.68,28.32-28.32-12.68-28.32-28.32-28.32c-10.24,0-19.18,5.45-24.15,13.59l-74.39-27.01c.19-2.73,0-5.52-.68-8.26l78.9-51.68c16.33,15.77,41.35,20.62,63.05,10.28Zm-202.96,219.73l36.42-144.77c.49-.03.97-.07,1.46-.13l113.76,185.31c-2.98,3.34-5.24,7.33-6.55,11.73l-117.04-8.2c0-.09,0-.18,0-.27,0-19.4-11.5-36.09-28.06-43.68Zm51.21-193.46c-7.87-6.08-18.79-7.62-28.38-3.06-1.22.58-2.38,1.25-3.47,1.98l-42.17-32.36c1.07-2.57,1.84-5.27,2.29-8.03l146.28-17.47c.7,2.07,1.52,4.12,2.48,6.14.28.6.59,1.18.89,1.76l-77.92,51.04Z"/>
  <g>
    <g>
      <path class="cls-1" d="m56.65,1671.66c0-5.81-1.57-10.27-4.72-13.36-3.15-3.09-8.83-6.11-17.04-9.04-8.21-2.93-14.5-6.01-18.84-9.24-4.35-3.23-7.6-6.91-9.76-11.04-2.16-4.13-3.24-8.87-3.24-14.2,0-9.23,3.08-16.83,9.24-22.8,6.16-5.97,14.23-8.96,24.2-8.96,6.83,0,12.91,1.52,18.24,4.57,5.33,3.05,9.44,7.29,12.32,12.72,2.88,5.43,4.32,11.4,4.32,17.91h-14.72c0-7.2-1.73-12.77-5.2-16.72-3.47-3.95-8.45-5.92-14.96-5.92-5.92,0-10.51,1.66-13.76,4.97-3.25,3.31-4.88,7.96-4.88,13.95,0,4.92,1.76,9.03,5.28,12.34,3.52,3.31,8.96,6.28,16.32,8.9,11.47,3.79,19.67,8.46,24.6,14.01,4.93,5.55,7.4,12.8,7.4,21.76,0,9.44-3.07,17-9.2,22.68-6.13,5.68-14.48,8.52-25.04,8.52-6.77,0-13.03-1.48-18.76-4.44-5.73-2.96-10.24-7.12-13.52-12.48-3.28-5.36-4.92-11.51-4.92-18.44h14.72c0,7.2,2.01,12.8,6.04,16.8,4.03,4,9.51,6,16.44,6,6.45,0,11.31-1.65,14.56-4.96,3.25-3.31,4.88-7.81,4.88-13.52Z"/>
      <path class="cls-1" d="m163.7,1664.06c-.64,12.48-4.15,22.04-10.52,28.68-6.37,6.64-15.38,9.96-27,9.96s-20.96-4.44-27.84-13.32c-6.88-8.88-10.32-20.92-10.32-36.12v-21.12c0-15.15,3.53-27.12,10.6-35.92,7.07-8.8,16.71-13.2,28.92-13.2,11.25,0,19.96,3.36,26.12,10.08,6.16,6.72,9.51,16.35,10.04,28.88h-14.8c-.64-9.49-2.64-16.27-6-20.32-3.36-4.05-8.48-6.08-15.36-6.08-7.95,0-14.06,3.11-18.32,9.32-4.27,6.21-6.4,15.32-6.4,27.32v21.36c0,11.79,1.99,20.83,5.96,27.12,3.97,6.29,9.77,9.44,17.4,9.44s13.12-1.89,16.48-5.68c3.36-3.79,5.44-10.59,6.24-20.4h14.8Z"/>
      <path class="cls-1" d="m237.86,1670.62h-39.36l-9.04,30.48h-15.04l37.52-116.49h12.56l37.6,116.49h-15.04l-9.2-30.48Zm-35.52-12.56h31.76l-15.92-52.97-15.84,52.97Z"/>
      <path class="cls-1" d="m292.67,1688.54h45.68v12.56h-60.41v-116.49h14.72v103.93Z"/>
      <path class="cls-1" d="m411.64,1647.26h-41.2v41.28h48v12.56h-62.65v-116.49h61.85v12.56h-47.2v37.52h41.2v12.56Z"/>
      <path class="cls-1" d="m469.89,1629.26l21.92-44.64h17.2l-30.32,57.77,30.96,58.73h-17.36l-22.4-45.44-22.48,45.44h-17.36l31.12-58.73-30.48-57.77h17.12l22.08,44.64Z"/>
      <path class="cls-1" d="m581.74,1670.62h-39.36l-9.04,30.48h-15.04l37.52-116.49h12.56l37.6,116.49h-15.04l-9.2-30.48Zm-35.52-12.56h31.76l-15.92-52.97-15.84,52.97Z"/>
    </g>
    <g>
      <path class="cls-1" d="m852.42,1700.32h-14.72v-53.85h-46.88v53.85h-14.64v-116.49h14.64v50.08h46.88v-50.08h14.72v116.49Z"/>
      <path class="cls-1" d="m892.42,1654.72v45.6h-14.64v-116.49h37.12c10.83,0,19.33,3.24,25.52,9.72,6.19,6.48,9.28,15.11,9.28,25.88s-2.95,19.83-8.84,25.88c-5.89,6.05-14.2,9.19-24.92,9.4h-23.52Zm0-12.56h22.48c6.51,0,11.49-1.95,14.96-5.85,3.47-3.9,5.2-9.48,5.2-16.75s-1.79-12.61-5.36-16.83c-3.57-4.22-8.48-6.33-14.72-6.33h-22.56v45.76Z"/>
      <path class="cls-1" d="m1041.64,1663.28c-.64,12.48-4.15,22.04-10.52,28.68-6.37,6.64-15.38,9.96-27,9.96s-20.96-4.44-27.84-13.32c-6.88-8.88-10.32-20.92-10.32-36.12v-21.12c0-15.15,3.53-27.12,10.6-35.92,7.07-8.8,16.71-13.2,28.92-13.2,11.25,0,19.96,3.36,26.12,10.08s9.51,16.35,10.04,28.88h-14.8c-.64-9.49-2.64-16.27-6-20.32-3.36-4.05-8.48-6.08-15.36-6.08-7.95,0-14.06,3.11-18.32,9.32-4.27,6.21-6.4,15.32-6.4,27.32v21.36c0,11.79,1.99,20.83,5.96,27.12,3.97,6.29,9.77,9.44,17.4,9.44s13.12-1.89,16.48-5.68c3.36-3.79,5.44-10.59,6.24-20.4h14.8Z"/>
    </g>
    <g>
      <path class="cls-1" d="m1211.83,1701.73v-115.54h27.53c13.49,0,23.96,4.22,31.42,12.66,7.46,8.44,11.19,20.3,11.19,35.59v19.36c0,15.29-3.78,27.1-11.35,35.43-7.57,8.33-18.54,12.5-32.93,12.5h-25.87Zm14.52-103.08v90.62h11.66c10.21,0,17.67-2.92,22.38-8.78,4.71-5.85,7.11-14.52,7.22-26.01v-20.49c0-12.18-2.34-21.11-7.02-26.8-4.68-5.69-11.76-8.54-21.23-8.54h-13.01Z"/>
      <path class="cls-1" d="m1359.98,1648.33h-40.87v40.95h47.61v12.46h-62.13v-115.54h61.34v12.46h-46.82v37.22h40.87v12.46Z"/>
      <path class="cls-1" d="m1440.68,1648.33h-40.87v40.95h47.61v12.46h-62.13v-115.54h61.34v12.46h-46.82v37.22h40.87v12.46Z"/>
      <path class="cls-1" d="m1480.51,1656.5v45.23h-14.52v-115.54h36.82c10.74,0,19.18,3.21,25.31,9.64,6.14,6.43,9.2,14.99,9.2,25.67s-2.92,19.67-8.77,25.67c-5.85,6-14.08,9.11-24.72,9.32h-23.33Zm0-12.46h22.3c6.45,0,11.4-1.93,14.84-5.8,3.44-3.87,5.16-9.41,5.16-16.61s-1.77-12.51-5.32-16.69c-3.54-4.19-8.41-6.28-14.6-6.28h-22.38v45.39Z"/>
      <path class="cls-1" d="m1623.58,1598.65h-30.39v103.08h-14.52v-103.08h-30.31v-12.46h75.23v12.46Z"/>
      <path class="cls-1" d="m1696.03,1648.33h-40.87v40.95h47.61v12.46h-62.13v-115.54h61.34v12.46h-46.82v37.22h40.87v12.46Z"/>
      <path class="cls-1" d="m1793.79,1664.99c-.63,12.38-4.11,21.86-10.43,28.45-6.32,6.59-15.25,9.88-26.78,9.88s-20.79-4.4-27.61-13.21c-6.82-8.81-10.24-20.75-10.24-35.83v-20.95c0-15.02,3.5-26.9,10.51-35.63,7.01-8.73,16.57-13.09,28.69-13.09,11.16,0,19.8,3.33,25.91,10,6.11,6.67,9.43,16.21,9.96,28.65h-14.68c-.63-9.42-2.62-16.13-5.95-20.16-3.33-4.02-8.41-6.03-15.24-6.03-7.88,0-13.94,3.08-18.17,9.24-4.23,6.16-6.35,15.2-6.35,27.1v21.19c0,11.69,1.97,20.66,5.91,26.9,3.94,6.24,9.69,9.36,17.26,9.36s13.01-1.88,16.35-5.63c3.33-3.76,5.4-10.5,6.19-20.23h14.68Z"/>
      <path class="cls-1" d="m1889.09,1701.73h-14.6v-53.4h-46.5v53.4h-14.52v-115.54h14.52v49.67h46.5v-49.67h14.6v115.54Z"/>
    </g>
  </g>
</svg>